<?xml version="1.0" encoding="UTF-8"?>
<!-- Generator: visioncortex VTracer 0.6.3 -->
<svg version="1.1" xmlns="http://www.w3.org/2000/svg" width="1280" height="1280">
<path d="M0 0 C0.66 -1.32 1.32 -2.64 2 -4 C6.29 -4 10.58 -4 15 -4 C15 7.22 15 18.44 15 30 C10.71 30 6.42 30 2 30 C-2.56 19.63 -2.56 19.63 -3.38 14.75 C-3.86 12.83 -3.86 12.83 -5.81 11.81 C-11.42 9.73 -17.06 9.02 -22.81 10.94 C-23.53 11.29 -24.26 11.64 -25 12 C-25.99 12.33 -26.98 12.66 -28 13 C-28.39 14.32 -28.71 15.66 -29 17 C-29.5 17.89 -29.99 18.77 -30.5 19.69 C-34.9 29.41 -34.58 46.62 -32 57 C-31.06 59.21 -30.02 61.28 -28.84 63.37 C-28 65 -28 65 -28 67 C-21.74 70.36 -15.08 71.09 -8.19 69.25 C-3.34 66.48 -1.12 62.7 1.25 57.75 C1.77 56.67 2.29 55.59 2.83 54.48 C3.21 53.66 3.6 52.84 4 52 C8.56 52.66 11.95 53.78 16 56 C15.61 62.96 13.37 67.94 10 74 C9.34 74 8.68 74 8 74 C7.73 74.64 7.46 75.28 7.19 75.94 C6 78 6 78 3 79 C3 79.66 3 80.32 3 81 C-4.86 86.72 -13.62 86.7 -23 86 C-28.28 84.86 -32.77 82.28 -37 79 C-37 78.34 -37 77.68 -37 77 C-37.99 76.67 -38.98 76.34 -40 76 C-41.72 73.92 -41.72 73.92 -43.5 71.19 C-44.09 70.31 -44.68 69.44 -45.28 68.54 C-49.73 59.38 -50.48 50.05 -50.38 40 C-50.39 38.91 -50.4 37.83 -50.41 36.71 C-50.37 25.36 -48.14 15.6 -42 6 C-41.34 6 -40.68 6 -40 6 C-39.75 5.4 -39.49 4.81 -39.23 4.2 C-36.58 -0.54 -31.63 -3.31 -26.75 -5.38 C-15.93 -7.18 -9 -6 0 0 Z " fill="#000204" transform="translate(725,641)"/>
<path d="M0 0 C3.73 2.3 7.07 4.9 9.54 8.57 C9.54 9.56 9.54 10.55 9.54 11.57 C10.2 11.57 10.86 11.57 11.54 11.57 C15.9 19.7 16.83 26.48 16.54 35.57 C14.1 36.79 12.54 36.69 9.81 36.68 C8.83 36.68 7.85 36.68 6.84 36.68 C5.78 36.67 4.72 36.67 3.62 36.66 C2.54 36.66 1.46 36.66 0.34 36.66 C-3.14 36.65 -6.61 36.64 -10.09 36.63 C-12.44 36.62 -14.79 36.62 -17.14 36.62 C-22.91 36.6 -28.69 36.59 -34.46 36.57 C-33.84 37.68 -33.22 38.8 -32.58 39.95 C-32.23 40.58 -31.88 41.21 -31.53 41.85 C-29.63 44.91 -27.63 46.28 -24.17 47.12 C-17.01 48.29 -10.29 47.94 -3.46 45.57 C-2.13 45.23 -0.8 44.89 0.54 44.57 C0.54 43.91 0.54 43.25 0.54 42.57 C2.83 42.33 2.83 42.33 5.54 42.57 C7.34 44.21 7.34 44.21 8.85 46.38 C9.36 47.09 9.88 47.79 10.4 48.52 C11.54 50.57 11.54 50.57 11.54 53.57 C10.88 53.57 10.22 53.57 9.54 53.57 C9.21 54.56 8.88 55.55 8.54 56.57 C3.9 60.48 -0.5 62.08 -6.46 62.57 C-6.79 62.9 -7.12 63.23 -7.46 63.57 C-20.3 64.52 -30.53 63.09 -41 55.03 C-42.46 53.57 -42.46 53.57 -43.46 50.57 C-44.12 50.57 -44.78 50.57 -45.46 50.57 C-51.92 41.14 -51.53 30.61 -50.46 19.57 C-49.45 15.56 -48.03 12.78 -45.46 9.57 C-44.89 8.84 -44.32 8.12 -43.73 7.38 C-32.47 -5.23 -14.91 -7.21 0 0 Z M-31.46 15.57 C-32.45 17.55 -33.44 19.53 -34.46 21.57 C-23.57 21.57 -12.68 21.57 -1.46 21.57 C-1.96 19.59 -1.96 19.59 -2.46 17.57 C-3.12 17.57 -3.78 17.57 -4.46 17.57 C-4.46 16.91 -4.46 16.25 -4.46 15.57 C-11.34 11.09 -11.34 11.09 -19.34 10.08 C-23.75 11.09 -27.87 12.82 -31.46 15.57 Z " fill="#000204" transform="translate(874.4609375,663.43359375)"/>
<path d="M0 0 C0.83 -0.02 1.67 -0.03 2.53 -0.05 C5.79 0.42 7.55 1.15 10.06 3.31 C10.55 6.45 10.55 6.45 10.38 10 C10.33 11.18 10.28 12.36 10.24 13.57 C10.15 14.93 10.15 14.93 10.06 16.31 C10.99 16.45 11.92 16.58 12.88 16.72 C16.06 17.31 16.06 17.31 19 18.81 C22.4 20.48 25.32 20.94 29.06 21.31 C29.29 20.74 29.52 20.16 29.75 19.56 C31.39 16.75 33.46 15.23 36.06 13.31 C38.37 14.3 40.68 15.29 43.06 16.31 C43.06 16.97 43.06 17.63 43.06 18.31 C44.55 18.81 44.55 18.81 46.06 19.31 C47.88 21.56 47.88 21.56 49.06 24.31 C48.35 27.89 47.13 29.25 44.44 31.75 C41.84 34.1 41.84 34.1 41.5 37.19 C42.09 40.45 43.31 42.43 45.04 45.21 C49.62 54.58 48.48 66.49 45.79 76.28 C42.55 85.35 37.86 93.55 30.06 99.31 C29.4 99.31 28.74 99.31 28.06 99.31 C27.57 100.8 27.57 100.8 27.06 102.31 C25.06 103.63 25.06 103.63 22.5 104.88 C21.67 105.29 20.85 105.7 20 106.13 C8.82 110.64 -4.88 111.14 -16.38 107.42 C-28.32 102.25 -37.89 93.55 -43.62 81.88 C-48.32 69.12 -49.05 54.34 -43.31 41.75 C-42.63 40.54 -42.63 40.54 -41.94 39.31 C-41.28 39.31 -40.62 39.31 -39.94 39.31 C-39.85 38.75 -39.77 38.19 -39.68 37.61 C-38.71 34.61 -37.11 32.9 -35 30.56 C-34.29 29.76 -33.58 28.96 -32.85 28.14 C-30.94 26.31 -30.94 26.31 -28.94 26.31 C-28.94 25.65 -28.94 24.99 -28.94 24.31 C-26.55 22.97 -24.15 21.64 -21.75 20.31 C-21.08 19.93 -20.4 19.55 -19.71 19.16 C-19.05 18.8 -18.39 18.43 -17.71 18.06 C-17.1 17.73 -16.5 17.39 -15.88 17.05 C-13.94 16.31 -13.94 16.31 -8.94 16.31 C-8.94 11.69 -8.94 7.07 -8.94 2.31 C-5.24 0.46 -3.91 0.02 0 0 Z M-22.94 30.31 C-25.19 32.48 -27.05 34.83 -28.94 37.31 C-29.66 38.01 -30.38 38.72 -31.12 39.44 C-37.38 45.9 -38.29 53.68 -38.25 62.25 C-38.27 63.01 -38.28 63.77 -38.3 64.55 C-38.31 72.69 -35.66 78.67 -30.94 85.31 C-30.5 86.16 -30.07 87 -29.62 87.88 C-27.29 91.25 -24.36 93.12 -20.94 95.31 C-20.09 95.87 -19.25 96.43 -18.38 97 C-12.42 100.21 -6.95 100.73 -0.31 100.75 C0.57 100.75 1.45 100.76 2.36 100.76 C9.84 100.63 15.5 99.05 22.06 95.31 C22.06 94.65 22.06 93.99 22.06 93.31 C22.62 93.09 23.18 92.86 23.75 92.62 C29.34 89.45 32.12 84.79 35.06 79.31 C35.72 78.32 36.38 77.33 37.06 76.31 C39.91 66.27 40.28 55.18 35.77 45.56 C33.05 40.86 30.14 36.95 26.06 33.31 C25.61 32.83 25.16 32.34 24.69 31.84 C12.3 20.19 -9.57 21.04 -22.94 30.31 Z " fill="#000204" transform="translate(266.9375,625.6875)"/>
<path d="M0 0 C0.79 -0 1.59 -0.01 2.41 -0.01 C9.22 0.12 14.54 1.84 20.38 5.44 C20.38 6.1 20.38 6.76 20.38 7.44 C21.37 7.77 22.36 8.1 23.38 8.44 C23.38 9.1 23.38 9.76 23.38 10.44 C24.37 10.77 25.36 11.1 26.38 11.44 C26.38 12.1 26.38 12.76 26.38 13.44 C27.04 13.44 27.69 13.44 28.38 13.44 C33.3 22.19 34.23 29.58 34.38 39.44 C31.96 40.65 30.35 40.59 27.65 40.64 C26.67 40.66 25.69 40.68 24.68 40.7 C23.09 40.73 23.09 40.73 21.46 40.75 C20.38 40.77 19.29 40.8 18.17 40.82 C14.7 40.88 11.22 40.94 7.75 41 C5.4 41.04 3.05 41.09 0.7 41.13 C-5.08 41.24 -10.85 41.34 -16.62 41.44 C-15.84 42.59 -15.05 43.73 -14.25 44.88 C-13.81 45.51 -13.37 46.15 -12.91 46.81 C-11.7 48.57 -11.7 48.57 -9.62 49.44 C-9.62 50.1 -9.62 50.76 -9.62 51.44 C-6.94 51.49 -4.25 51.53 -1.56 51.56 C-0.43 51.59 -0.43 51.59 0.72 51.61 C6.68 51.66 11.85 50.96 17.06 47.81 C19.38 46.44 19.38 46.44 23.38 46.44 C23.38 47.1 23.38 47.76 23.38 48.44 C24.04 48.44 24.69 48.44 25.38 48.44 C26.69 50.75 28.02 53.06 29.38 55.44 C28.06 57.94 28.06 57.94 26.38 60.44 C25.38 60.44 24.39 60.44 23.38 60.44 C23.38 61.1 23.38 61.76 23.38 62.44 C15.39 68.62 3.93 68.28 -5.62 67.44 C-10.21 66.25 -14.4 64.55 -18.62 62.44 C-18.62 61.78 -18.62 61.12 -18.62 60.44 C-19.62 60.44 -20.61 60.44 -21.62 60.44 C-21.62 59.78 -21.62 59.12 -21.62 58.44 C-22.62 58.11 -23.61 57.78 -24.62 57.44 C-24.62 56.78 -24.62 56.12 -24.62 55.44 C-25.29 55.44 -25.94 55.44 -26.62 55.44 C-32.62 48.22 -34.06 40.33 -33.88 31.18 C-33.11 22.99 -29.36 14.32 -23.62 8.44 C-15.85 3.13 -9.43 0.03 0 0 Z M-14.12 21.06 C-15.8 23.25 -15.8 23.25 -15.62 25.44 C-5.07 25.44 5.49 25.44 16.38 25.44 C15.71 23.79 15.06 22.14 14.38 20.44 C13.38 20.11 12.39 19.78 11.38 19.44 C11.38 18.78 11.38 18.12 11.38 17.44 C1.89 12.69 -6.61 13.17 -14.12 21.06 Z " fill="#000204" transform="translate(1080.625,659.5625)"/>
<path d="M0 0 C1.28 0 2.56 0.01 3.88 0.01 C5.15 0.01 6.43 0 7.75 0 C10.88 0.13 10.88 0.13 11.88 1.13 C12 2.54 12.05 3.96 12.08 5.38 C12.1 6.28 12.12 7.18 12.14 8.11 C12.16 9.09 12.17 10.07 12.19 11.07 C12.21 12.07 12.23 13.07 12.25 14.1 C12.32 17.3 12.38 20.5 12.44 23.7 C12.48 25.86 12.52 28.02 12.57 30.19 C12.68 35.5 12.78 40.82 12.88 46.13 C13.99 45.21 15.09 44.28 16.2 43.34 C16.82 42.83 17.43 42.31 18.07 41.77 C19.8 40.2 21.23 38.59 22.69 36.76 C23.41 35.89 24.13 35.03 24.88 34.13 C25.53 34.13 26.2 34.13 26.88 34.13 C27.15 33.54 27.43 32.95 27.71 32.34 C29.75 28.48 31.88 26.01 35.88 24.13 C41.17 23.39 46.56 23.79 51.88 24.13 C52.54 25.45 53.19 26.77 53.88 28.13 C53.12 28.87 52.37 29.62 51.6 30.38 C48.81 33.13 46.03 35.89 43.25 38.65 C42.04 39.84 40.84 41.04 39.63 42.23 C37.9 43.94 36.17 45.65 34.44 47.37 C33.9 47.9 33.36 48.43 32.8 48.98 C30.43 51.35 28.95 52.9 27.88 56.13 C28.87 56.46 29.86 56.79 30.88 57.13 C30.88 57.79 30.88 58.45 30.88 59.13 C31.53 59.13 32.2 59.13 32.88 59.13 C34.44 60.83 35.93 62.59 37.38 64.38 C38.17 65.36 38.96 66.33 39.78 67.34 C41.46 69.58 42.76 71.58 43.88 74.13 C44.54 74.13 45.19 74.13 45.88 74.13 C47.57 75.78 47.57 75.78 49.44 77.95 C50.06 78.65 50.68 79.36 51.32 80.09 C52.88 82.13 52.88 82.13 53.88 85.13 C54.54 85.13 55.19 85.13 55.88 85.13 C55.38 86.62 55.38 86.62 54.88 88.13 C51.98 88.27 49.09 88.37 46.19 88.45 C45.37 88.49 44.55 88.53 43.71 88.57 C39.33 88.66 37.5 88.63 33.97 85.81 C33.28 84.93 32.59 84.04 31.88 83.13 C31.35 82.56 30.83 81.99 30.29 81.4 C26.88 77.36 26.88 77.36 26.88 75.13 C26.22 75.13 25.55 75.13 24.88 75.13 C23.37 73.45 23.37 73.45 21.75 71.26 C20.94 70.18 20.94 70.18 20.12 69.08 C18.88 67.13 18.88 67.13 18.88 65.13 C17.55 65.13 16.24 65.13 14.88 65.13 C14.88 65.79 14.88 66.45 14.88 67.13 C14.22 67.13 13.55 67.13 12.88 67.13 C12.85 67.73 12.82 68.33 12.8 68.95 C12.68 71.66 12.56 74.36 12.44 77.07 C12.4 78.02 12.36 78.96 12.32 79.94 C12.28 80.83 12.23 81.73 12.19 82.66 C12.15 83.49 12.12 84.33 12.08 85.18 C11.88 87.13 11.88 87.13 10.88 88.13 C8.54 88.23 6.21 88.26 3.88 88.26 C2.6 88.26 1.32 88.26 0 88.27 C-3.12 88.13 -3.12 88.13 -4.12 87.13 C-4.23 84.46 -4.26 81.81 -4.25 79.14 C-4.26 78.3 -4.26 77.47 -4.26 76.6 C-4.26 73.82 -4.26 71.04 -4.26 68.26 C-4.26 66.33 -4.26 64.41 -4.26 62.48 C-4.26 58.45 -4.26 54.41 -4.26 50.37 C-4.25 45.18 -4.25 39.99 -4.26 34.8 C-4.26 30.83 -4.26 26.85 -4.26 22.88 C-4.26 20.96 -4.26 19.05 -4.26 17.13 C-4.26 14.46 -4.26 11.79 -4.25 9.12 C-4.26 8.33 -4.26 7.53 -4.26 6.7 C-4.24 0.18 -4.24 0.18 0 0 Z " fill="#000204" transform="translate(981.125,636.8671875)"/>
<path d="M0 0 C4.62 0 9.24 0 14 0 C14.33 10.89 14.66 21.78 15 33 C16.32 31.35 17.64 29.7 19 28 C24.93 22.98 31.07 22.24 38.67 22.5 C43.19 23.18 46.77 24.69 50 28 C50 28.66 50 29.32 50 30 C50.66 30 51.32 30 52 30 C56.53 38.03 57.31 45.97 57.23 55.03 C57.23 55.95 57.23 56.87 57.23 57.81 C57.23 59.73 57.22 61.65 57.21 63.57 C57.19 66.52 57.19 69.47 57.19 72.42 C57.18 74.29 57.17 76.16 57.17 78.03 C57.17 78.92 57.17 79.8 57.16 80.71 C57.12 86.88 57.12 86.88 56 88 C53.47 88.07 50.97 88.09 48.44 88.06 C47.37 88.06 47.37 88.06 46.28 88.05 C44.52 88.04 42.76 88.02 41 88 C39.86 85.71 39.88 84.44 39.87 81.91 C39.87 81.06 39.87 80.22 39.86 79.35 C39.86 78.43 39.86 77.52 39.86 76.57 C39.84 74.64 39.82 72.71 39.8 70.78 C39.77 67.73 39.75 64.69 39.75 61.64 C39.75 58.7 39.71 55.76 39.67 52.82 C39.68 51.92 39.69 51.01 39.69 50.07 C39.61 45.59 39.45 43.6 36.67 39.92 C33.13 37.37 31.28 37.32 27 38 C23.73 39.9 23.73 39.9 21 42 C20.34 42 19.68 42 19 42 C18.88 42.52 18.75 43.03 18.62 43.56 C17.55 47.75 16.37 51.9 15 56 C14.86 58.34 14.77 60.69 14.72 63.04 C14.7 63.72 14.68 64.4 14.66 65.1 C14.58 68.02 14.52 70.93 14.45 73.84 C14.4 75.97 14.34 78.1 14.28 80.23 C14.24 82.14 14.24 82.14 14.19 84.09 C14 87 14 87 13 88 C10.84 88.1 8.67 88.13 6.5 88.12 C5.31 88.13 4.13 88.13 2.91 88.13 C0 88 0 88 -1 87 C-1.1 84.33 -1.14 81.68 -1.13 79.01 C-1.13 78.17 -1.13 77.33 -1.13 76.47 C-1.14 73.69 -1.14 70.91 -1.13 68.12 C-1.13 66.2 -1.13 64.28 -1.14 62.35 C-1.14 58.31 -1.14 54.27 -1.13 50.24 C-1.12 45.05 -1.13 39.86 -1.13 34.67 C-1.14 30.69 -1.14 26.72 -1.13 22.74 C-1.13 20.83 -1.13 18.92 -1.14 17 C-1.14 14.33 -1.13 11.66 -1.13 8.99 C-1.13 8.19 -1.13 7.39 -1.14 6.57 C-1.11 1.11 -1.11 1.11 0 0 Z " fill="#000204" transform="translate(755,637)"/>
<path d="M0 0 C2.15 1.18 4.14 2.41 6.11 3.87 C6.51 3.21 6.91 2.56 7.33 1.89 C9.11 -0.13 9.11 -0.13 11.27 -0.56 C12.04 -0.52 12.81 -0.48 13.61 -0.45 C14.77 -0.41 14.77 -0.41 15.95 -0.37 C18.11 -0.13 18.11 -0.13 21.11 0.87 C22.46 3.56 22.24 5.67 22.24 8.68 C22.24 9.84 22.24 10.99 22.25 12.19 C22.24 13.4 22.24 14.62 22.23 15.87 C22.24 17.69 22.24 17.69 22.25 19.55 C22.24 20.7 22.24 21.86 22.24 23.05 C22.24 24.12 22.24 25.19 22.24 26.29 C22.11 28.87 22.11 28.87 21.11 30.87 C16.82 30.87 12.53 30.87 8.11 30.87 C7.66 29.82 7.2 28.76 6.73 27.68 C6.46 27.04 6.18 26.4 5.9 25.75 C5.26 24.22 4.67 22.67 4.11 21.12 C2.75 18.06 1.12 16.58 -1.58 14.68 C-5.76 13.21 -9.83 13.03 -13.93 14.7 C-17.53 16.64 -17.53 16.64 -19.89 19.87 C-20.55 19.87 -21.21 19.87 -21.89 19.87 C-24.15 28.78 -24.15 35.95 -21.89 44.87 C-21.23 44.87 -20.57 44.87 -19.89 44.87 C-18.99 45.83 -18.99 45.83 -18.08 46.8 C-13.88 50.77 -8.11 50.08 -2.61 50.02 C1.88 49.77 5.58 49.04 9.23 46.24 C11.73 44.41 13.07 44.49 16.11 44.87 C17.95 46.48 17.95 46.48 19.48 48.62 C20.01 49.31 20.53 50.01 21.07 50.73 C22.11 52.87 22.11 52.87 21.77 55.13 C21.44 55.99 21.44 55.99 21.11 56.87 C20.45 56.87 19.79 56.87 19.11 56.87 C19.11 57.53 19.11 58.19 19.11 58.87 C9.75 66.83 -2.25 66.66 -13.89 65.87 C-16.98 65.21 -19.01 64.31 -21.89 62.87 C-22.99 62.38 -22.99 62.38 -24.11 61.88 C-28.21 60.01 -28.21 60.01 -29.89 58.87 C-30.39 57.38 -30.39 57.38 -30.89 55.87 C-31.55 55.87 -32.21 55.87 -32.89 55.87 C-34.33 53.89 -34.33 53.89 -35.89 51.24 C-36.41 50.38 -36.92 49.53 -37.45 48.64 C-41.86 40.13 -42.55 30.58 -39.88 21.36 C-38.03 16.83 -36.13 12.58 -32.89 8.87 C-32.23 8.87 -31.57 8.87 -30.89 8.87 C-30.56 7.88 -30.23 6.89 -29.89 5.87 C-29.23 5.87 -28.57 5.87 -27.89 5.87 C-27.89 5.21 -27.89 4.55 -27.89 3.87 C-19.18 -1.11 -9.74 -3.82 0 0 Z " fill="#000204" transform="translate(938.890625,661.1328125)"/>
<path d="M0 0 C2.81 -0.03 5.62 -0.05 8.44 -0.06 C9.24 -0.07 10.04 -0.08 10.87 -0.09 C12.91 -0.1 14.96 -0.05 17 0 C18.55 1.55 18.22 3.1 18.32 5.25 C18.36 6.11 18.4 6.96 18.44 7.84 C18.48 8.74 18.52 9.64 18.56 10.56 C18.61 11.46 18.65 12.37 18.69 13.29 C18.8 15.53 18.9 17.76 19 20 C19.63 20.05 20.25 20.1 20.9 20.15 C21.72 20.22 22.53 20.3 23.38 20.38 C24.19 20.44 25 20.51 25.84 20.59 C28 21 28 21 30 23 C30.23 25.35 30.23 25.35 30.19 28.06 C30.18 28.96 30.17 29.86 30.17 30.79 C30 33 30 33 29 34 C27.32 34.23 25.63 34.41 23.94 34.56 C23.02 34.65 22.1 34.73 21.15 34.82 C20.44 34.88 19.73 34.94 19 35 C18.95 41.19 18.91 47.39 18.89 53.58 C18.88 55.69 18.87 57.79 18.85 59.9 C18.82 62.93 18.81 65.96 18.8 68.98 C18.79 69.93 18.78 70.87 18.77 71.84 C18.77 72.72 18.77 73.6 18.77 74.51 C18.77 75.67 18.77 75.67 18.76 76.85 C19.04 79.34 19.66 80.89 21 83 C23.86 84.91 25.35 85.43 28.62 86.06 C32.9 86.9 32.9 86.9 34 88 C34.07 89.52 34.08 91.04 34.06 92.56 C34.05 93.39 34.04 94.22 34.04 95.07 C34.02 95.7 34.01 96.34 34 97 C27.31 99.97 19.14 99.99 12.06 98.25 C7.46 96.37 4.75 94.12 2 90 C-2.1 78.59 -1.34 66.61 -1.19 54.69 C-1.17 52.68 -1.16 50.66 -1.15 48.65 C-1.11 43.77 -1.06 38.88 -1 34 C-2.28 34.04 -3.56 34.08 -4.88 34.12 C-7.05 34.2 -7.05 34.2 -9 34 C-11 32 -11 32 -11.31 28.06 C-11.23 25.56 -11.12 24.23 -9.94 22 C-7.02 20.5 -4.23 20.94 -1 21 C-1.01 19.74 -1.02 18.47 -1.04 17.17 C-1.04 15.51 -1.05 13.85 -1.06 12.19 C-1.07 11.35 -1.08 10.52 -1.09 9.66 C-1.09 8.86 -1.09 8.06 -1.1 7.23 C-1.1 6.49 -1.11 5.75 -1.11 4.99 C-1 3 -1 3 0 0 Z " fill="#000204" transform="translate(425,622)"/>
<path d="M0 0 C0.68 -0.02 1.36 -0.04 2.06 -0.06 C7.35 -0.06 9.93 1.28 13.94 4.44 C13.32 6.04 12.69 7.65 12.06 9.25 C11.71 10.14 11.37 11.04 11.01 11.96 C9.94 14.44 9.94 14.44 7.94 17.44 C4.91 17.61 2.08 17.62 -0.94 17.5 C-2.56 17.44 -4.18 17.39 -5.8 17.35 C-6.53 17.32 -7.25 17.29 -7.99 17.26 C-10.41 17.47 -11.92 18.33 -14.06 19.44 C-15.05 19.44 -16.04 19.44 -17.06 19.44 C-17.06 20.1 -17.06 20.76 -17.06 21.44 C-18.44 23.06 -18.44 23.06 -20.06 24.44 C-20.72 24.44 -21.38 24.44 -22.06 24.44 C-22.83 27.9 -23.23 31.2 -23.38 34.74 C-23.42 35.71 -23.46 36.69 -23.51 37.7 C-23.55 38.7 -23.58 39.71 -23.62 40.75 C-23.67 41.78 -23.71 42.8 -23.76 43.86 C-23.86 46.39 -23.96 48.91 -24.06 51.44 C-23.22 51.41 -22.38 51.39 -21.51 51.37 C-19.86 51.34 -19.86 51.34 -18.19 51.31 C-16.55 51.28 -16.55 51.28 -14.88 51.24 C-12.06 51.44 -12.06 51.44 -10.06 53.44 C-9.83 56 -9.83 56 -9.88 59 C-9.88 59.99 -9.89 60.98 -9.89 62 C-10.06 64.44 -10.06 64.44 -11.06 65.44 C-14.15 65.54 -17.22 65.58 -20.31 65.57 C-21.24 65.57 -22.17 65.57 -23.13 65.57 C-25.09 65.57 -27.06 65.57 -29.03 65.57 C-32.05 65.56 -35.07 65.57 -38.09 65.57 C-40 65.57 -41.91 65.57 -43.81 65.57 C-45.18 65.57 -45.18 65.57 -46.57 65.58 C-52.95 65.55 -52.95 65.55 -54.06 64.44 C-54.16 62.44 -54.19 60.44 -54.19 58.44 C-54.19 57.34 -54.19 56.25 -54.2 55.12 C-54.06 52.44 -54.06 52.44 -53.06 51.44 C-49.1 51.44 -45.14 51.44 -41.06 51.44 C-41.06 39.89 -41.06 28.34 -41.06 16.44 C-45.02 16.44 -48.98 16.44 -53.06 16.44 C-54.87 14.63 -54.24 11.93 -54.25 9.5 C-54.26 8.42 -54.28 7.34 -54.29 6.22 C-54.06 3.44 -54.06 3.44 -52.06 1.44 C-49.7 1.18 -49.7 1.18 -46.76 1.17 C-45.17 1.17 -45.17 1.17 -43.55 1.16 C-42.44 1.17 -41.33 1.18 -40.19 1.19 C-39.09 1.18 -37.98 1.17 -36.85 1.16 C-35.79 1.17 -34.73 1.17 -33.63 1.17 C-32.66 1.17 -31.69 1.18 -30.69 1.18 C-27.94 1.45 -26.31 1.84 -24.06 3.44 C-23.31 7.06 -23.31 7.06 -23.06 10.44 C-22.57 9.97 -22.07 9.5 -21.56 9.01 C-20.88 8.39 -20.2 7.77 -19.5 7.12 C-18.84 6.51 -18.18 5.9 -17.5 5.26 C-12.02 1.16 -6.73 -0.07 0 0 Z " fill="#000204" transform="translate(1177.0625,659.5625)"/>
<path d="M0 0 C12.52 0.08 22.27 2.67 31.59 11.45 C33.97 14.27 33.97 14.27 33.97 17.27 C34.63 17.27 35.29 17.27 35.97 17.27 C38.44 22.31 39.49 26.47 39.41 32.14 C39.4 32.84 39.39 33.55 39.38 34.27 C39.06 44.22 34.9 50.41 27.97 57.27 C26.34 58.65 24.69 60.01 22.97 61.27 C24.4 66.25 26.57 70.22 29.28 74.58 C30.09 75.9 30.9 77.23 31.7 78.55 C32.09 79.19 32.48 79.82 32.88 80.48 C34.3 82.81 35.68 85.15 37.03 87.52 C37.41 88.18 37.8 88.85 38.19 89.53 C38.97 91.27 38.97 91.27 38.97 94.27 C39.63 94.27 40.29 94.27 40.97 94.27 C41.35 95.92 41.68 97.59 41.97 99.27 C40.97 100.27 40.97 100.27 37.15 100.36 C35.57 100.36 33.99 100.34 32.41 100.33 C31.6 100.32 30.79 100.32 29.96 100.31 C27.96 100.3 25.97 100.28 23.97 100.27 C22.98 98.54 22 96.81 21.03 95.08 C20.49 94.12 19.94 93.15 19.38 92.16 C18.06 89.46 17.4 87.22 16.97 84.27 C16.31 84.27 15.65 84.27 14.97 84.27 C13.96 82.33 12.96 80.39 11.97 78.45 C11.41 77.37 10.85 76.3 10.28 75.18 C8.97 72.27 8.97 72.27 8.97 69.27 C8.31 69.27 7.65 69.27 6.97 69.27 C6.64 68.28 6.31 67.29 5.97 66.27 C4.69 66.14 3.41 66.02 2.09 65.89 C-1.78 65.52 -1.78 65.52 -4.03 63.27 C-4.26 60.95 -4.26 60.95 -4.22 58.27 C-4.21 57.38 -4.21 56.49 -4.2 55.58 C-4.03 53.27 -4.03 53.27 -3.03 51.27 C0.28 50.82 3.56 50.53 6.89 50.32 C10.85 49.95 12.63 49.53 15.86 47.02 C19.59 42.14 21.21 36.66 20.77 30.5 C20.31 28.03 19.71 25.67 18.97 23.27 C18.68 22.25 18.39 21.24 18.09 20.2 C17.14 18.1 17.14 18.1 15.03 17.52 C14.35 17.43 13.67 17.35 12.97 17.27 C11.98 16.94 10.99 16.61 9.97 16.27 C6.87 16.04 3.78 15.88 0.68 15.74 C-0.21 15.58 -1.11 15.43 -2.03 15.27 C-4.2 12.01 -4.3 10.97 -4.28 7.2 C-4.29 6.33 -4.29 5.45 -4.3 4.54 C-3.94 1.51 -3.08 0.4 0 0 Z " fill="#000204" transform="translate(164.03125,619.734375)"/>
<path d="M0 0 C1.03 0 1.03 0 2.09 0.01 C2.78 -0.01 3.47 -0.02 4.18 -0.04 C6.18 -0.04 6.18 -0.04 9.59 0.32 C11.61 3.36 11.84 3.92 11.84 7.32 C11.84 8.13 11.85 8.94 11.85 9.78 C11.84 11.1 11.84 11.1 11.83 12.46 C11.83 13.39 11.84 14.33 11.84 15.29 C11.84 18.39 11.83 21.48 11.82 24.58 C11.82 26.73 11.82 28.87 11.82 31.02 C11.82 35.51 11.81 40.01 11.8 44.51 C11.78 50.29 11.77 56.07 11.78 61.85 C11.78 66.27 11.77 70.7 11.76 75.13 C11.76 77.27 11.76 79.4 11.76 81.53 C11.75 84.5 11.75 87.47 11.74 90.44 C11.74 91.78 11.74 91.78 11.74 93.14 C11.7 99.21 11.7 99.21 10.59 100.32 C7.75 100.42 4.93 100.46 2.09 100.45 C1.29 100.45 0.49 100.46 -0.33 100.46 C-6.28 100.45 -6.28 100.45 -7.41 99.32 C-7.52 96.32 -7.56 93.34 -7.56 90.34 C-7.56 89.39 -7.56 88.45 -7.57 87.48 C-7.58 84.34 -7.58 81.21 -7.58 78.08 C-7.58 75.91 -7.58 73.74 -7.59 71.57 C-7.59 67.02 -7.6 62.47 -7.6 57.91 C-7.6 52.07 -7.61 46.22 -7.63 40.38 C-7.64 35.9 -7.64 31.42 -7.64 26.93 C-7.64 24.78 -7.64 22.62 -7.65 20.47 C-7.66 17.46 -7.66 14.45 -7.65 11.44 C-7.66 10.54 -7.66 9.64 -7.67 8.72 C-7.64 1.92 -7.05 0.08 0 0 Z " fill="#000204" transform="translate(145.41015625,619.677734375)"/>
<path d="M0 0 C0 4.62 0 9.24 0 14 C-4 16 -4 16 -7 16 C-7 16.66 -7 17.32 -7 18 C-7.6 18.58 -8.2 19.15 -8.81 19.75 C-15.2 26.32 -14.86 34.34 -15 43 C-14.82 47.66 -13.99 51.75 -12 56 C-11.34 56 -10.68 56 -10 56 C-10 56.66 -10 57.32 -10 58 C-9.34 58 -8.68 58 -8 58 C-8 58.66 -8 59.32 -8 60 C-7.22 60.14 -6.43 60.29 -5.62 60.44 C-3 61 -3 61 -1 62 C0.62 62.12 2.25 62.18 3.88 62.19 C4.74 62.2 5.6 62.22 6.49 62.23 C9.16 61.99 10.65 61.2 13 60 C14.32 60 15.64 60 17 60 C17 59.34 17 58.68 17 58 C18.65 57.34 20.3 56.68 22 56 C22.66 57.32 23.32 58.64 24 60 C24.66 60 25.32 60 26 60 C27.3 62.13 28.03 63.48 27.88 66 C26.72 68.64 25.18 70.15 23 72 C22.34 72 21.68 72 21 72 C21 72.66 21 73.32 21 74 C12.24 78.93 0.76 79.09 -9 77 C-12.62 75.44 -12.62 75.44 -15 74 C-15 73.34 -15 72.68 -15 72 C-16.32 71.67 -17.64 71.34 -19 71 C-19 70.34 -19 69.68 -19 69 C-19.96 68.6 -19.96 68.6 -20.94 68.19 C-23 67 -23 67 -24 64 C-24.66 64 -25.32 64 -26 64 C-33.17 50.67 -35.86 40.56 -31.84 25.75 C-28.8 15.8 -21.92 7.33 -13 2 C-8.22 -0.42 -5.45 -1.09 0 0 Z " fill="#000204" transform="translate(630,643)"/>
<path d="M0 0 C1.54 1.02 3.06 2.06 4.56 3.12 C5.55 3.78 6.54 4.45 7.56 5.12 C7.56 5.78 7.56 6.45 7.56 7.12 C8.55 7.46 9.54 7.78 10.56 8.12 C15.74 16.41 15.86 25.65 15.79 35.12 C15.79 36.24 15.79 37.36 15.79 38.51 C15.79 40.85 15.78 43.2 15.77 45.54 C15.75 49.14 15.75 52.74 15.75 56.35 C15.74 58.63 15.74 60.91 15.73 63.19 C15.73 64.27 15.73 65.35 15.73 66.47 C15.72 67.46 15.71 68.45 15.71 69.47 C15.7 70.79 15.7 70.79 15.7 72.13 C15.56 74.12 15.56 74.12 14.56 75.12 C11.72 75.22 8.91 75.26 6.06 75.25 C4.87 75.26 4.87 75.26 3.64 75.26 C-2.31 75.25 -2.31 75.25 -3.44 74.12 C-3.54 72.53 -3.58 70.93 -3.6 69.33 C-3.61 68.31 -3.62 67.29 -3.63 66.24 C-3.63 65.12 -3.64 64.01 -3.65 62.86 C-3.68 60.52 -3.71 58.18 -3.73 55.85 C-3.78 52.14 -3.81 48.44 -3.84 44.74 C-3.87 41.18 -3.91 37.61 -3.96 34.05 C-3.96 32.95 -3.97 31.84 -3.97 30.71 C-4.07 24.2 -4.41 19.15 -9.25 14.31 C-11.99 12.83 -14.34 12.39 -17.44 12.12 C-18.43 12.62 -18.43 12.62 -19.44 13.12 C-22.13 13.31 -24.73 13.21 -27.44 13.12 C-28.44 12.12 -28.44 12.12 -28.75 8.31 C-28.69 5.43 -28.56 4.32 -27 1.81 C-18.58 -3.73 -8.81 -5.24 0 0 Z " fill="#000204" transform="translate(563.4375,644.875)"/>
<path d="M0 0 C1.11 -0.02 1.11 -0.02 2.25 -0.04 C4.19 -0.04 6.13 0.07 8.06 0.19 C10.63 2.75 10.32 3.73 10.35 7.29 C10.36 8.36 10.38 9.42 10.39 10.52 C10.4 11.67 10.4 12.83 10.41 14.02 C10.42 15.2 10.44 16.39 10.45 17.61 C10.5 21.4 10.53 25.2 10.56 29 C10.6 33.99 10.66 38.97 10.72 43.96 C10.72 45.11 10.73 46.26 10.73 47.44 C10.75 48.51 10.76 49.59 10.78 50.69 C10.78 51.64 10.79 52.58 10.8 53.55 C11.08 56.4 11.88 58.59 13.06 61.19 C13.72 61.19 14.38 61.19 15.06 61.19 C15.06 61.85 15.06 62.51 15.06 63.19 C16.28 63.1 17.49 63.02 18.75 62.93 C20.33 62.83 21.92 62.73 23.5 62.62 C24.7 62.54 24.7 62.54 25.93 62.46 C27.97 62.33 30.02 62.25 32.06 62.19 C33.71 63.84 33.39 65.73 33.5 68 C33.41 72.79 33.41 72.79 30.81 75.75 C25.97 78.18 20.37 78.1 15.06 78.19 C14.34 78.22 13.61 78.26 12.86 78.3 C6.2 78.13 1.65 73.61 -2.94 69.19 C-7.45 64.06 -9.19 58.13 -9.18 51.38 C-9.18 50.26 -9.19 49.15 -9.19 48 C-9.18 46.8 -9.18 45.61 -9.17 44.39 C-9.17 43.15 -9.17 41.92 -9.17 40.65 C-9.16 38.06 -9.16 35.46 -9.14 32.86 C-9.12 28.87 -9.12 24.88 -9.12 20.89 C-9.12 18.37 -9.11 15.85 -9.11 13.32 C-9.1 12.12 -9.1 10.92 -9.1 9.68 C-9.1 8.58 -9.09 7.48 -9.08 6.35 C-9.08 5.37 -9.08 4.4 -9.07 3.39 C-8.77 -1.59 -3.9 0 0 0 Z " fill="#000204" transform="translate(343.9375,642.8125)"/>
<path d="M0 0 C1.11 -0.02 1.11 -0.02 2.25 -0.04 C4.19 -0.04 6.13 0.07 8.06 0.19 C10.06 2.19 10.06 2.19 10.31 5.23 C10.31 6.54 10.31 7.84 10.31 9.19 C10.31 9.91 10.31 10.63 10.31 11.37 C10.31 13.76 10.3 16.15 10.29 18.54 C10.29 20.19 10.29 21.84 10.29 23.5 C10.29 26.96 10.28 30.43 10.27 33.9 C10.25 38.35 10.25 42.81 10.25 47.26 C10.25 50.68 10.24 54.09 10.24 57.51 C10.23 59.15 10.23 60.8 10.23 62.44 C10.23 64.73 10.22 67.02 10.21 69.31 C10.2 71.27 10.2 71.27 10.2 73.27 C10.06 76.19 10.06 76.19 9.06 77.19 C6.59 77.37 4.17 77.47 1.69 77.5 C0.66 77.54 0.66 77.54 -0.39 77.59 C-5.44 77.65 -5.44 77.65 -7.64 75.6 C-9.4 72.32 -9.3 69.86 -9.29 66.14 C-9.3 65.44 -9.3 64.74 -9.3 64.01 C-9.3 61.7 -9.28 59.39 -9.27 57.08 C-9.26 55.48 -9.26 53.87 -9.26 52.26 C-9.26 48.9 -9.24 45.54 -9.22 42.18 C-9.19 37.86 -9.18 33.54 -9.18 29.23 C-9.17 25.91 -9.16 22.6 -9.15 19.28 C-9.14 17.69 -9.14 16.1 -9.13 14.51 C-9.13 12.29 -9.11 10.07 -9.1 7.85 C-9.09 6.58 -9.08 5.32 -9.08 4.01 C-8.8 -1.6 -4.55 0 0 0 Z " fill="#000204" transform="translate(389.9375,642.8125)"/>
<path d="M0 0 C2.27 -0.13 4.54 -0.23 6.81 -0.31 C8.71 -0.4 8.71 -0.4 10.64 -0.49 C14 0 14 0 15.89 2.39 C16.25 3.25 16.62 4.11 17 5 C17.33 5.66 17.66 6.32 18 7 C18.1 9.18 18.13 11.36 18.13 13.55 C18.13 14.22 18.13 14.89 18.13 15.58 C18.14 17.81 18.14 20.03 18.13 22.25 C18.13 23.8 18.13 25.34 18.14 26.88 C18.14 30.11 18.14 33.34 18.13 36.58 C18.12 40.73 18.13 44.88 18.13 49.03 C18.14 52.22 18.14 55.4 18.13 58.58 C18.13 60.11 18.13 61.65 18.14 63.18 C18.14 65.31 18.13 67.45 18.13 69.58 C18.13 70.8 18.13 72.02 18.13 73.27 C18 76 18 76 17 77 C14.16 77.1 11.34 77.14 8.5 77.12 C7.7 77.13 6.9 77.13 6.08 77.14 C0.13 77.13 0.13 77.13 -1 76 C-1.1 73.71 -1.13 71.42 -1.13 69.13 C-1.13 68.41 -1.13 67.69 -1.13 66.95 C-1.14 64.56 -1.14 62.17 -1.13 59.79 C-1.13 58.13 -1.13 56.48 -1.14 54.83 C-1.14 51.36 -1.14 47.89 -1.13 44.42 C-1.12 39.96 -1.13 35.51 -1.13 31.06 C-1.14 27.64 -1.14 24.23 -1.13 20.81 C-1.13 19.17 -1.13 17.53 -1.14 15.89 C-1.14 13.59 -1.13 11.3 -1.13 9 C-1.13 7.7 -1.13 6.39 -1.13 5.04 C-1 2 -1 2 0 0 Z " fill="#000204" transform="translate(515,643)"/>
<path d="M0 0 C5.28 0 10.56 0 16 0 C17.49 2.98 17.13 5.68 17.13 9 C17.13 9.72 17.13 10.45 17.13 11.19 C17.14 13.57 17.14 15.96 17.13 18.35 C17.13 20 17.13 21.66 17.14 23.31 C17.14 26.78 17.14 30.24 17.13 33.71 C17.12 38.17 17.13 42.62 17.13 47.08 C17.14 50.49 17.14 53.91 17.13 57.32 C17.13 58.96 17.13 60.61 17.14 62.25 C17.14 64.54 17.13 66.83 17.13 69.13 C17.13 70.43 17.13 71.74 17.13 73.08 C17 76 17 76 16 77 C13.32 77.1 10.68 77.14 8 77.12 C6.87 77.13 6.87 77.13 5.73 77.14 C0.13 77.13 0.13 77.13 -1 76 C-1.1 73.71 -1.13 71.42 -1.13 69.13 C-1.13 68.41 -1.13 67.69 -1.13 66.95 C-1.14 64.56 -1.14 62.17 -1.13 59.79 C-1.13 58.13 -1.13 56.48 -1.14 54.83 C-1.14 51.36 -1.14 47.89 -1.13 44.42 C-1.12 39.96 -1.13 35.51 -1.13 31.06 C-1.14 27.64 -1.14 24.23 -1.13 20.81 C-1.13 19.17 -1.13 17.53 -1.14 15.89 C-1.14 13.59 -1.13 11.3 -1.13 9 C-1.13 7.7 -1.13 6.39 -1.13 5.04 C-1 2 -1 2 0 0 Z " fill="#000204" transform="translate(476,643)"/>
<path d="M0 0 C11.93 2.84 19.97 8.45 26.75 18.62 C29.44 23.74 30.42 28.25 30.75 34 C30.81 34.7 30.86 35.4 30.92 36.12 C31.18 40.35 30.69 43.16 29 47 C22.77 47.05 16.54 47.09 10.31 47.11 C8.19 47.12 6.07 47.13 3.95 47.15 C0.91 47.18 -2.14 47.19 -5.18 47.2 C-6.61 47.21 -6.61 47.21 -8.06 47.23 C-8.95 47.23 -9.83 47.23 -10.73 47.23 C-11.51 47.23 -12.29 47.24 -13.09 47.24 C-15 47 -15 47 -17 45 C-17.23 42.43 -17.23 42.43 -17.19 39.44 C-17.18 38.45 -17.17 37.45 -17.17 36.43 C-17 34 -17 34 -16 33 C-13.85 32.91 -11.71 32.89 -9.56 32.9 C-8.25 32.91 -6.95 32.91 -5.6 32.91 C-4.21 32.92 -2.83 32.93 -1.44 32.94 C-0.04 32.94 1.35 32.95 2.74 32.95 C6.16 32.96 9.58 32.98 13 33 C11.79 28.51 10.48 24.94 8 21 C8 20.34 8 19.68 8 19 C7.28 18.73 6.56 18.46 5.81 18.19 C2.9 16.96 0.51 15.93 -2 14 C-2.56 11.15 -2.56 11.15 -2.44 7.94 C-2.4 6.34 -2.4 6.34 -2.37 4.71 C-2 2 -2 2 0 0 Z " fill="#000204" transform="translate(636,642)"/>
<path d="M0 0 C2.57 1.77 3.54 3.4 4.81 6.25 C5.31 9.75 5.31 9.75 4.81 13.25 C2.38 16.12 2.38 16.12 -0.19 18.25 C-0.52 18.58 -0.85 18.91 -1.19 19.25 C-5.17 19.83 -9.43 20.39 -12.93 18.12 C-15.84 14.83 -17.28 11.61 -17.19 7.25 C-13.05 -0.86 -8.47 -2.9 0 0 Z " fill="#000204" transform="translate(490.1875,610.75)"/>
<path d="M0 0 C1.94 0.75 1.94 0.75 3.94 2.75 C4.34 7.29 4.27 11.85 4.25 16.41 C4.25 18.68 4.27 20.94 4.3 23.21 C4.3 24.65 4.3 26.09 4.3 27.53 C4.3 28.84 4.31 30.15 4.31 31.5 C3.94 34.75 3.94 34.75 2.58 36.72 C0.94 37.75 0.94 37.75 -1.69 37.5 C-4.06 36.75 -4.06 36.75 -5.06 35.75 C-5.19 33.25 -5.25 30.78 -5.27 28.29 C-5.27 27.54 -5.28 26.79 -5.28 26.02 C-5.29 24.43 -5.3 22.84 -5.3 21.26 C-5.31 18.83 -5.34 16.39 -5.38 13.96 C-5.38 12.42 -5.39 10.89 -5.39 9.35 C-5.4 8.62 -5.42 7.89 -5.43 7.13 C-5.42 5.08 -5.42 5.08 -5.06 1.75 C-2.06 -0.25 -2.06 -0.25 0 0 Z " fill="#000204" transform="translate(268.0625,654.25)"/>
</svg>
